<svg id="svg" version="1.1" xmlns="http://www.w3.org/2000/svg" xmlns:xlink="http://www.w3.org/1999/xlink" width="400" height="403.257328990228" viewBox="0, 0, 400,403.257328990228"><g id="svgg"><path id="path0" d="M341.600 76.936 C 330.199 82.104,317.678 92.170,310.473 101.960 C 307.143 106.486,307.111 106.376,312.500 108.977 C 314.975 110.171,318.182 111.822,319.628 112.645 C 322.977 114.552,322.842 114.631,326.602 108.547 C 328.351 105.716,333.528 97.377,338.104 90.015 C 348.047 74.024,348.050 74.013,341.600 76.936 M200.000 75.820 C 200.000 76.314,201.494 78.831,207.514 88.477 C 210.989 94.045,215.894 101.979,218.416 106.108 C 223.698 114.759,223.671 114.739,227.083 112.682 C 228.357 111.914,231.425 110.275,233.900 109.040 C 237.325 107.330,238.400 106.607,238.400 106.014 C 238.400 103.695,226.992 91.245,220.125 86.070 C 212.382 80.235,200.000 73.928,200.000 75.820 M262.800 107.005 C 253.121 108.337,239.699 115.717,226.800 126.799 C 216.325 135.798,210.000 141.582,210.000 142.161 C 210.000 142.587,212.012 142.741,219.900 142.918 C 237.773 143.318,247.631 147.462,256.256 158.200 C 263.156 166.789,264.768 172.262,265.970 191.166 C 266.837 204.805,266.116 203.600,273.414 203.600 C 280.418 203.600,279.759 204.776,280.585 190.800 C 281.317 178.410,281.989 174.045,283.944 168.997 C 288.131 158.179,297.690 149.023,308.749 145.239 C 314.433 143.295,315.915 143.138,330.700 142.919 C 345.253 142.704,345.538 142.666,344.300 141.134 C 343.772 140.481,330.024 128.479,325.600 124.810 C 308.990 111.033,284.333 104.043,262.800 107.005 M179.429 147.029 C 179.083 147.374,178.800 147.895,178.800 148.186 C 178.800 149.147,177.691 149.200,157.667 149.204 C 130.384 149.210,126.530 149.596,118.022 153.175 C 113.896 154.910,112.833 155.200,110.594 155.200 C 108.571 155.200,107.195 155.508,104.491 156.564 C 101.714 157.649,100.048 158.013,96.347 158.339 C 87.975 159.077,76.400 165.810,67.597 175.063 C 35.567 208.729,50.053 267.701,95.784 289.810 C 102.973 293.285,105.011 293.898,110.999 294.385 C 116.437 294.826,185.856 294.984,186.967 294.557 C 187.984 294.167,187.745 293.735,185.050 291.093 C 181.975 288.078,181.060 285.414,181.948 282.061 C 183.075 277.801,184.562 276.598,192.908 273.191 C 199.319 270.574,200.381 269.470,199.019 266.836 C 198.348 265.540,198.167 265.460,190.296 263.008 C 181.201 260.175,178.320 256.582,180.143 250.350 C 181.557 245.520,183.873 244.122,193.000 242.590 C 204.428 240.672,204.602 239.996,196.145 230.400 C 189.755 223.149,190.214 223.461,184.701 222.642 C 164.204 219.599,145.632 221.497,124.241 228.820 C 116.276 231.546,112.799 232.191,107.798 231.867 C 88.772 230.637,74.961 212.069,79.334 193.600 C 80.754 187.607,81.794 186.700,85.054 188.610 C 87.098 189.808,87.090 189.748,85.754 194.200 C 82.562 204.842,88.081 217.433,98.250 222.704 C 105.835 226.636,111.185 226.629,122.847 222.675 C 156.627 211.221,190.924 212.818,222.000 227.293 C 230.862 231.421,236.886 235.227,252.688 246.677 C 258.360 250.787,265.520 255.944,268.600 258.137 C 271.680 260.330,278.993 265.606,284.851 269.862 C 297.534 279.077,296.516 278.842,300.537 273.486 L 301.974 271.573 301.299 270.157 C 300.635 268.765,300.642 268.711,301.738 266.871 C 309.296 254.182,312.293 237.309,309.351 224.003 C 308.391 219.659,308.256 219.639,302.883 223.067 C 285.380 234.235,267.903 235.789,251.573 227.632 C 247.803 225.748,222.757 210.130,219.141 207.408 C 201.465 194.100,190.748 174.540,188.814 152.055 C 188.599 149.555,188.216 147.260,187.963 146.955 C 187.267 146.117,180.280 146.177,179.429 147.029 " stroke="none" fill="#db342c" fill-rule="evenodd"></path><path id="path1" d="M0.000 201.600 L 0.000 403.200 200.000 403.200 L 400.000 403.200 400.000 201.600 L 400.000 0.000 200.000 0.000 L 0.000 0.000 0.000 201.600 M198.288 67.551 C 216.301 73.481,231.501 84.687,242.574 100.200 C 245.503 104.305,245.317 104.231,249.734 103.028 C 264.044 99.130,281.212 99.055,295.891 102.827 C 301.291 104.215,301.050 104.289,303.792 100.376 C 314.457 85.157,329.733 73.804,347.600 67.819 C 355.130 65.297,357.917 65.634,358.040 69.082 C 358.602 84.765,353.261 107.809,345.152 124.698 C 341.904 131.462,340.724 129.380,354.847 141.800 C 358.868 145.336,359.043 146.716,356.947 158.400 C 352.697 182.093,341.023 199.081,319.799 212.452 C 313.923 216.154,314.183 215.560,315.418 222.477 C 318.555 240.044,315.920 255.423,307.326 269.700 C 305.996 271.911,305.877 272.000,304.271 272.003 C 302.706 272.006,302.473 272.164,300.600 274.482 C 296.976 278.969,296.929 278.534,301.400 281.823 C 305.261 284.664,306.281 285.707,307.245 287.800 C 309.331 292.327,306.869 298.438,302.251 300.202 C 299.489 301.257,112.770 301.329,105.842 300.278 C 70.323 294.889,43.086 269.190,35.743 234.135 C 34.214 226.833,34.119 210.916,35.567 204.600 C 42.299 175.246,65.734 154.618,95.343 151.982 C 99.304 151.629,100.720 151.307,103.943 150.024 C 111.513 147.010,119.720 144.861,128.600 143.567 C 132.005 143.071,175.700 142.538,177.428 142.971 C 177.954 143.103,178.663 143.749,179.003 144.406 L 179.621 145.600 183.748 145.600 C 187.463 145.600,187.952 145.514,188.638 144.744 C 189.057 144.273,192.500 141.120,196.289 137.738 C 204.955 130.003,204.469 131.073,201.792 125.620 C 193.940 109.621,189.710 93.164,188.561 74.143 C 188.037 65.471,189.323 64.600,198.288 67.551 M243.181 111.962 C 232.799 115.822,225.843 120.468,210.900 133.522 C 200.748 142.390,200.479 142.800,204.803 142.800 L 207.607 142.800 209.904 140.700 C 212.460 138.363,226.461 126.124,230.200 122.958 C 233.773 119.933,237.639 117.228,243.000 114.002 C 245.640 112.414,247.875 111.043,247.967 110.957 C 248.532 110.424,245.738 111.011,243.181 111.962 M195.813 149.741 C 193.858 151.171,197.015 166.235,201.207 175.480 C 205.552 185.062,213.888 195.399,222.600 202.008 C 233.638 210.382,256.249 223.366,262.400 224.864 C 266.781 225.930,267.359 225.777,264.600 224.280 C 262.046 222.895,245.676 212.800,239.000 208.494 C 222.313 197.729,211.181 182.435,206.452 163.781 C 205.449 159.824,204.264 151.822,204.499 150.593 C 204.772 149.168,197.563 148.462,195.813 149.741 M78.200 162.541 C 47.035 175.461,33.104 209.031,44.815 242.994 C 52.204 264.423,70.415 283.037,90.630 289.823 C 95.227 291.366,95.028 290.844,89.776 287.586 C 41.029 257.343,35.357 193.987,78.777 164.727 C 81.100 163.162,83.171 161.728,83.380 161.541 C 84.302 160.714,81.130 161.327,78.200 162.541 M271.100 210.676 C 270.156 210.922,270.204 211.235,271.619 214.038 C 273.033 216.838,273.409 216.854,274.891 214.173 C 276.736 210.836,275.357 209.563,271.100 210.676 " stroke="none" fill="#2060df" fill-rule="evenodd"></path><path id="path2" d="M189.610 66.790 C 188.442 67.958,188.263 69.213,188.561 74.143 C 189.710 93.164,193.940 109.621,201.792 125.620 C 204.469 131.073,204.955 130.003,196.289 137.738 C 192.500 141.120,189.057 144.273,188.638 144.744 C 187.952 145.514,187.463 145.600,183.748 145.600 L 179.621 145.600 179.003 144.406 C 178.663 143.749,177.954 143.103,177.428 142.971 C 175.700 142.538,132.005 143.071,128.600 143.567 C 119.720 144.861,111.513 147.010,103.943 150.024 C 100.720 151.307,99.304 151.629,95.343 151.982 C 50.537 155.971,23.647 199.512,38.431 244.135 C 48.326 274.004,74.090 295.461,105.842 300.278 C 112.770 301.329,299.489 301.257,302.251 300.202 C 306.869 298.438,309.331 292.327,307.245 287.800 C 306.281 285.707,305.261 284.664,301.400 281.823 C 296.929 278.534,296.976 278.969,300.600 274.482 C 302.473 272.164,302.706 272.006,304.271 272.003 C 305.877 272.000,305.996 271.911,307.326 269.700 C 315.920 255.423,318.555 240.044,315.418 222.477 C 314.183 215.560,313.923 216.154,319.799 212.452 C 341.023 199.081,352.697 182.093,356.947 158.400 C 359.043 146.716,358.868 145.336,354.847 141.800 C 340.724 129.380,341.904 131.462,345.152 124.698 C 353.261 107.809,358.602 84.765,358.040 69.082 C 357.917 65.634,355.130 65.297,347.600 67.819 C 329.733 73.804,314.457 85.157,303.792 100.376 C 301.050 104.289,301.291 104.215,295.891 102.827 C 281.212 99.055,264.044 99.130,249.734 103.028 C 245.317 104.231,245.503 104.305,242.574 100.200 C 231.501 84.687,216.301 73.481,198.288 67.551 C 192.953 65.795,190.795 65.605,189.610 66.790 M346.313 76.049 C 346.375 76.369,342.681 82.654,338.104 90.015 C 333.528 97.377,328.351 105.716,326.602 108.547 C 322.842 114.631,322.977 114.552,319.628 112.645 C 318.182 111.822,314.975 110.171,312.500 108.977 C 307.111 106.376,307.143 106.486,310.473 101.960 C 317.678 92.170,330.199 82.104,341.600 76.936 C 345.511 75.163,346.119 75.049,346.313 76.049 M205.707 77.329 C 216.787 82.515,228.154 91.686,235.438 101.317 C 239.339 106.476,239.373 106.308,233.900 109.040 C 231.425 110.275,228.357 111.914,227.083 112.682 C 223.671 114.739,223.698 114.759,218.416 106.108 C 215.894 101.979,210.989 94.045,207.514 88.477 C 201.494 78.831,200.000 76.314,200.000 75.820 C 200.000 75.157,202.453 75.806,205.707 77.329 M199.040 86.900 C 210.402 105.041,217.994 117.522,217.997 118.064 C 218.000 118.687,212.763 123.620,210.577 125.052 C 209.089 126.027,208.449 125.223,205.643 118.861 C 201.236 108.869,198.570 100.283,196.814 90.430 C 195.468 82.875,195.995 82.039,199.040 86.900 M350.397 85.300 C 350.372 94.497,339.752 125.586,336.714 125.352 C 335.956 125.293,328.934 119.325,328.600 118.456 C 328.358 117.824,328.786 117.095,340.974 97.400 C 350.221 82.458,350.405 82.222,350.397 85.300 M282.316 106.828 C 297.901 108.545,314.107 115.277,325.600 124.810 C 330.024 128.479,343.772 140.481,344.300 141.134 C 345.538 142.666,345.253 142.704,330.700 142.919 C 315.915 143.138,314.433 143.295,308.749 145.239 C 297.690 149.023,288.131 158.179,283.944 168.997 C 281.989 174.045,281.317 178.410,280.585 190.800 C 279.759 204.776,280.418 203.600,273.414 203.600 C 266.116 203.600,266.837 204.805,265.970 191.166 C 264.768 172.262,263.156 166.789,256.256 158.200 C 247.631 147.462,237.773 143.318,219.900 142.918 C 212.012 142.741,210.000 142.587,210.000 142.161 C 210.000 140.930,231.770 122.218,238.200 117.922 C 242.899 114.782,251.829 110.167,256.600 108.411 C 261.477 106.617,273.615 105.869,282.316 106.828 M247.967 110.957 C 247.875 111.043,245.640 112.414,243.000 114.002 C 237.639 117.228,233.773 119.933,230.200 122.958 C 226.461 126.124,212.460 138.363,209.904 140.700 L 207.607 142.800 204.803 142.800 C 200.479 142.800,200.748 142.390,210.900 133.522 C 225.843 120.468,232.799 115.822,243.181 111.962 C 245.738 111.011,248.532 110.424,247.967 110.957 M187.963 146.955 C 188.216 147.260,188.599 149.555,188.814 152.055 C 190.748 174.540,201.465 194.100,219.141 207.408 C 222.757 210.130,247.803 225.748,251.573 227.632 C 267.903 235.789,285.380 234.235,302.883 223.067 C 308.256 219.639,308.391 219.659,309.351 224.003 C 312.293 237.309,309.296 254.182,301.738 266.871 C 300.642 268.711,300.635 268.765,301.299 270.157 L 301.974 271.573 300.537 273.486 C 296.516 278.842,297.534 279.077,284.851 269.862 C 278.993 265.606,271.680 260.330,268.600 258.137 C 265.520 255.944,258.360 250.787,252.688 246.677 C 236.886 235.227,230.862 231.421,222.000 227.293 C 190.924 212.818,156.627 211.221,122.847 222.675 C 111.185 226.629,105.835 226.636,98.250 222.704 C 88.081 217.433,82.562 204.842,85.754 194.200 C 87.090 189.748,87.098 189.808,85.054 188.610 C 81.794 186.700,80.754 187.607,79.334 193.600 C 74.961 212.069,88.772 230.637,107.798 231.867 C 112.799 232.191,116.276 231.546,124.241 228.820 C 145.632 221.497,164.204 219.599,184.701 222.642 C 190.214 223.461,189.755 223.149,196.145 230.400 C 204.602 239.996,204.428 240.672,193.000 242.590 C 183.873 244.122,181.557 245.520,180.143 250.350 C 178.320 256.582,181.201 260.175,190.296 263.008 C 198.167 265.460,198.348 265.540,199.019 266.836 C 200.381 269.470,199.319 270.574,192.908 273.191 C 184.562 276.598,183.075 277.801,181.948 282.061 C 181.060 285.414,181.975 288.078,185.050 291.093 C 187.745 293.735,187.984 294.167,186.967 294.557 C 185.856 294.984,116.437 294.826,110.999 294.385 C 105.011 293.898,102.973 293.285,95.784 289.810 C 50.053 267.701,35.567 208.729,67.597 175.063 C 76.400 165.810,87.975 159.077,96.347 158.339 C 100.048 158.013,101.714 157.649,104.491 156.564 C 107.195 155.508,108.571 155.200,110.594 155.200 C 112.833 155.200,113.896 154.910,118.022 153.175 C 126.530 149.596,130.384 149.210,157.667 149.204 C 177.691 149.200,178.800 149.147,178.800 148.186 C 178.800 146.464,186.677 145.406,187.963 146.955 M232.978 150.330 C 245.537 153.795,255.112 163.572,258.053 175.935 C 258.617 178.305,259.111 183.396,259.761 193.535 L 260.675 207.800 264.949 216.319 C 269.559 225.508,269.580 225.602,267.076 225.597 C 261.204 225.586,255.730 223.093,239.711 213.137 C 216.206 198.528,208.033 190.535,201.207 175.480 C 197.018 166.241,193.858 151.171,195.810 149.743 C 197.209 148.720,228.962 149.222,232.978 150.330 M350.945 150.043 C 351.554 150.912,351.547 151.175,350.785 156.600 C 348.134 175.475,337.184 193.005,321.200 203.964 C 302.689 216.655,288.765 224.167,281.127 225.585 C 276.573 226.429,276.572 226.447,281.385 216.788 C 286.150 207.226,285.833 208.624,286.817 192.800 C 287.731 178.089,288.273 174.754,290.548 169.831 C 295.792 158.480,306.048 151.036,318.600 149.470 C 324.107 148.782,350.389 149.248,350.945 150.043 M83.380 161.541 C 83.171 161.728,81.100 163.162,78.777 164.727 C 35.357 193.987,41.029 257.343,89.776 287.586 C 95.028 290.844,95.227 291.366,90.630 289.823 C 70.415 283.037,52.204 264.423,44.815 242.994 C 33.104 209.031,47.035 175.461,78.200 162.541 C 81.130 161.327,84.302 160.714,83.380 161.541 M245.280 182.080 C 244.956 182.404,244.800 184.258,244.800 187.800 C 244.800 193.886,244.859 194.000,248.000 194.000 C 251.141 194.000,251.200 193.886,251.200 187.800 C 251.200 184.258,251.044 182.404,250.720 182.080 C 250.097 181.457,245.903 181.457,245.280 182.080 M295.597 182.608 C 295.379 183.182,295.200 185.519,295.200 187.800 C 295.200 193.809,295.346 194.065,298.697 193.918 L 301.400 193.800 301.400 187.800 L 301.400 181.800 298.697 181.682 C 296.104 181.568,295.978 181.606,295.597 182.608 M275.100 210.652 C 276.458 211.016,274.957 215.774,273.319 216.300 C 272.881 216.440,270.400 212.140,270.400 211.241 C 270.400 210.548,273.338 210.180,275.100 210.652 M207.835 228.435 C 220.403 232.871,230.013 238.169,244.400 248.591 C 253.704 255.331,288.687 280.527,294.400 284.602 C 302.034 290.048,302.731 291.040,300.635 293.478 L 299.669 294.600 250.268 294.600 L 200.868 294.600 194.994 290.603 C 185.547 284.174,185.594 282.904,195.420 279.009 C 203.187 275.930,205.313 273.940,205.872 269.225 C 206.562 263.395,203.611 260.548,193.805 257.587 C 186.472 255.373,185.364 254.525,186.363 251.898 C 186.950 250.354,187.847 250.030,195.123 248.743 C 202.300 247.473,203.734 246.970,205.643 245.057 C 209.615 241.077,209.384 236.049,204.995 230.907 C 201.525 226.843,202.044 226.391,207.835 228.435 " stroke="none" fill="#253463" fill-rule="evenodd"></path><path id="path3" d="M196.000 84.930 C 196.000 91.135,200.685 107.619,205.643 118.861 C 208.449 125.223,209.089 126.027,210.577 125.052 C 212.763 123.620,218.000 118.687,217.997 118.064 C 217.994 117.522,210.402 105.041,199.040 86.900 C 197.203 83.967,196.000 83.188,196.000 84.930 M348.529 85.303 C 347.709 86.523,337.879 102.363,331.327 113.020 C 327.850 118.676,327.788 118.170,332.462 122.187 C 337.504 126.521,337.469 126.536,341.002 118.513 C 347.725 103.241,353.452 77.971,348.529 85.303 M204.900 149.646 C 204.253 150.311,204.270 151.209,205.024 156.349 C 208.222 178.126,220.038 196.261,239.000 208.494 C 254.437 218.452,266.539 225.600,267.963 225.600 C 269.464 225.600,269.206 224.804,264.949 216.319 L 260.675 207.800 259.761 193.535 C 259.111 183.396,258.617 178.305,258.053 175.935 C 255.110 163.567,245.475 153.734,232.978 150.345 C 229.009 149.269,205.828 148.692,204.900 149.646 M318.600 149.470 C 306.048 151.036,295.792 158.480,290.548 169.831 C 288.273 174.754,287.731 178.089,286.817 192.800 C 285.833 208.624,286.150 207.226,281.385 216.788 C 276.572 226.447,276.573 226.429,281.127 225.585 C 288.765 224.167,302.689 216.655,321.200 203.964 C 337.184 193.005,348.134 175.475,350.785 156.600 C 351.943 148.360,353.713 149.187,335.077 149.260 C 326.675 149.293,319.260 149.387,318.600 149.470 M250.720 182.080 C 251.044 182.404,251.200 184.258,251.200 187.800 C 251.200 193.886,251.141 194.000,248.000 194.000 C 244.859 194.000,244.800 193.886,244.800 187.800 C 244.800 184.258,244.956 182.404,245.280 182.080 C 245.903 181.457,250.097 181.457,250.720 182.080 M301.400 187.800 L 301.400 193.800 298.697 193.918 C 295.346 194.065,295.200 193.809,295.200 187.800 C 295.200 181.791,295.346 181.535,298.697 181.682 L 301.400 181.800 301.400 187.800 M202.800 227.768 C 202.800 228.080,203.788 229.493,204.995 230.907 C 209.384 236.049,209.615 241.077,205.643 245.057 C 203.734 246.970,202.300 247.473,195.123 248.743 C 187.847 250.030,186.950 250.354,186.363 251.898 C 185.364 254.525,186.472 255.373,193.805 257.587 C 203.611 260.548,206.562 263.395,205.872 269.225 C 205.313 273.940,203.187 275.930,195.420 279.009 C 185.594 282.904,185.547 284.174,194.994 290.603 L 200.868 294.600 250.268 294.600 L 299.669 294.600 300.635 293.478 C 302.731 291.040,302.034 290.048,294.400 284.602 C 288.687 280.527,253.704 255.331,244.400 248.591 C 230.013 238.169,220.403 232.871,207.835 228.435 C 203.971 227.071,202.800 226.916,202.800 227.768 " stroke="none" fill="#f3cbab" fill-rule="evenodd"></path></g></svg>